# xmcd
#
# Track frame offsets: 
#        150
#        17201
#        30541
#        44439
#        62811
#        74382
#        87122
#        101718
#        120401
#        150928
#        161298
#        178853
#        194168
#
# Disc length: 2896 seconds
#
# Revision: 0
# Processed by: cddbd v1.5.2PL0 Copyright (c) Steve Scherf et al.
# Submitted via: ExactAudioCopy v0.95b4
#
DISCID=a80b4e0d
DTITLE=Two Car Garage - Three
DYEAR=2007
DGENRE=Country
TTITLE0=Come Back To Shelby
TTITLE1=Epitaph
TTITLE2=No Shame
TTITLE3=The Great Gravitation Massacre
TTITLE4=Now I Know
TTITLE5=Should've California
TTITLE6=Camo Jacket
TTITLE7=Mediocre
TTITLE8=Camaro
TTITLE9=Gape and Shudder
TTITLE10=Blanket Gray
TTITLE11=Arson
TTITLE12=Postcards and Apologies
EXTD=
EXTT0=
EXTT1=
EXTT2=
EXTT3=
EXTT4=
EXTT5=
EXTT6=
EXTT7=
EXTT8=
EXTT9=
EXTT10=
EXTT11=
EXTT12=
PLAYORDER=
